<?xml version="1.0" standalone="no"?>
<!DOCTYPE svg PUBLIC "-//W3C//DTD SVG 20010904//EN"
 "http://www.w3.org/TR/2001/REC-SVG-20010904/DTD/svg10.dtd">
<svg version="1.0" xmlns="http://www.w3.org/2000/svg"
 width="512.000000pt" height="512.000000pt" viewBox="0 0 512.000000 512.000000"
 preserveAspectRatio="xMidYMid meet">
<g transform="translate(0.000000,512.000000) scale(0.100000,-0.100000)"
fill="#fe72db" stroke="none">
<path d="M2500 4866 c-8 -26 -144 -230 -177 -266 -3 -3 -20 12 -38 32 -35 38
-65 118 -65 174 0 18 -4 35 -9 39 -5 3 -31 -20 -56 -52 -75 -92 -100 -153
-113 -271 l-7 -72 -49 35 c-27 19 -95 58 -150 86 -111 57 -168 93 -206 132
l-26 26 0 -127 c1 -137 -16 -232 -40 -232 -8 0 -40 16 -71 36 -53 34 -55 34
-49 12 4 -13 11 -93 16 -178 5 -85 16 -182 24 -215 22 -87 21 -88 -31 -54 -60
38 -122 55 -243 70 -104 12 -161 32 -221 80 -21 17 -39 28 -39 25 0 -31 36
-159 58 -209 l29 -63 -186 3 c-102 2 -191 5 -197 7 -12 5 14 -71 46 -135 27
-52 102 -144 164 -201 64 -59 43 -62 -32 -5 -84 64 -93 66 -38 9 28 -29 48
-53 45 -56 -2 -2 -38 -9 -79 -15 -41 -7 -106 -21 -143 -33 -37 -11 -79 -18
-94 -15 l-26 5 6 -102 c9 -172 65 -315 173 -443 49 -57 52 -63 27 -63 -28 0
-129 -51 -225 -113 -48 -32 -93 -57 -100 -57 -6 0 30 -26 80 -57 l92 -57 -102
-96 c-123 -115 -214 -189 -291 -237 -32 -19 -57 -36 -55 -38 17 -15 388 -198
436 -215 60 -22 72 -32 53 -45 -6 -3 -33 -44 -62 -91 l-51 -86 33 -28 c72 -61
195 -110 276 -110 l32 0 -45 -130 c-35 -105 -81 -215 -111 -271 -8 -14 310
-22 375 -10 36 7 66 11 67 9 9 -10 -53 -269 -100 -417 -6 -19 -1 -18 49 14 31
20 123 63 204 96 81 33 153 62 159 66 7 3 15 -1 17 -8 35 -120 67 -211 99
-285 l41 -91 45 32 c25 18 80 49 121 70 41 20 98 55 127 76 l52 39 16 -58 c23
-83 56 -172 67 -178 4 -3 21 -34 37 -69 31 -67 141 -245 153 -245 12 0 231
316 265 381 l31 61 25 -44 c14 -23 40 -73 58 -111 30 -61 49 -83 49 -57 0 11
165 150 178 150 5 0 15 -12 21 -27 15 -38 58 -217 67 -277 l7 -50 24 30 c40
49 160 245 198 324 19 41 38 92 41 113 4 20 11 37 16 37 5 0 35 -23 66 -51 32
-28 111 -87 177 -132 66 -44 143 -98 172 -119 29 -21 55 -38 58 -38 3 0 5 14
5 31 0 28 40 300 45 306 1 2 19 -6 41 -16 39 -18 109 -42 240 -80 38 -11 90
-34 115 -50 l44 -30 3 142 c3 127 -10 355 -24 426 l-6 27 70 -10 c49 -7 105
-5 192 4 l122 13 -6 61 c-9 75 -42 210 -62 248 l-15 28 56 0 c31 0 87 5 125
11 62 9 74 8 114 -10 26 -11 46 -17 46 -14 0 22 -60 117 -98 156 -54 55 -57
50 57 98 100 42 164 48 225 20 l48 -21 -18 28 c-40 62 -84 131 -127 202 -25
41 -59 91 -76 110 l-29 35 70 36 70 35 -73 56 c-87 65 -104 75 -186 103 l-63
21 118 76 c138 91 206 123 291 141 l63 12 -70 48 c-39 26 -110 82 -159 124
-48 41 -114 93 -146 115 l-58 39 34 47 c48 65 168 311 167 341 0 3 -29 -52
-65 -124 -61 -124 -128 -221 -164 -238 -10 -5 -34 0 -63 13 l-47 21 63 63 c35
35 70 74 77 87 7 13 -11 -1 -39 -32 -74 -81 -123 -113 -162 -104 l-32 7 29 32
c46 49 71 89 103 167 17 39 30 74 30 77 0 9 -114 -7 -190 -27 -73 -19 -74 -19
-50 -1 87 66 170 83 369 76 125 -4 150 -3 155 9 4 12 -4 15 -38 15 -41 0 -237
24 -285 35 l-24 6 23 24 c32 34 158 129 200 150 l35 18 -60 19 c-112 34 -220
58 -297 64 l-77 7 35 41 c73 85 144 275 144 387 0 30 -1 31 -18 16 -41 -37
-110 -57 -229 -66 -112 -9 -184 -26 -245 -57 -16 -8 -28 -12 -28 -10 0 3 6 33
14 68 8 35 22 128 31 208 19 173 36 250 73 339 l28 67 -51 -28 c-75 -40 -168
-74 -306 -108 -68 -17 -131 -36 -141 -41 -16 -9 -18 -5 -18 41 0 27 -2 50 -4
50 -3 0 -37 -12 -77 -27 -52 -19 -88 -41 -132 -82 -54 -49 -59 -52 -39 -21 30
45 62 117 62 138 0 22 -50 -27 -97 -96 l-37 -54 -18 42 c-19 44 -156 279 -187
319 l-19 24 -16 -35 c-15 -32 -232 -246 -240 -237 -1 2 -29 40 -61 84 -78 107
-176 229 -185 233 -5 2 -13 -13 -20 -32z m127 -132 c109 -152 163 -262 216
-439 25 -82 48 -157 51 -165 4 -9 -1 -20 -11 -26 -16 -10 -35 22 -178 302 -87
172 -161 311 -163 309 -2 -2 17 -47 42 -101 25 -53 46 -102 46 -108 0 -6 -14
-39 -32 -73 -22 -44 -35 -59 -41 -50 -6 8 -7 4 -4 -10 3 -13 1 -26 -4 -29 -5
-3 -10 57 -11 143 l-1 148 -7 -160 c-6 -144 -9 -165 -33 -215 l-26 -55 -1 52
c0 28 -5 55 -11 59 -7 4 -9 -10 -4 -49 4 -30 4 -68 1 -84 -6 -26 -10 -29 -36
-25 -28 4 -29 6 -35 79 -8 83 -1 170 20 240 8 26 12 49 10 51 -2 2 -11 -20
-21 -50 -12 -36 -18 -100 -21 -204 l-5 -151 -24 11 c-13 6 -31 27 -41 46 -10
19 -21 36 -24 38 -3 1 -4 15 -2 30 4 22 2 24 -7 12 -9 -12 -10 1 -5 55 13 148
40 214 157 387 47 68 89 135 93 147 9 29 11 28 112 -115z m464 -29 c62 -116
89 -215 89 -331 l0 -89 -56 -65 c-31 -36 -67 -82 -81 -103 -14 -20 -27 -36
-29 -35 -1 2 6 39 16 82 22 93 40 270 39 376 l-2 75 -8 -90 c-7 -84 -37 -200
-101 -387 l-23 -68 -37 108 c-20 59 -38 116 -39 127 -4 26 19 68 92 171 65 91
89 140 88 176 -1 22 -1 22 -8 -2 -15 -47 -44 -95 -112 -184 -38 -49 -69 -94
-70 -100 0 -8 -57 139 -59 152 0 1 47 52 105 114 58 61 110 124 117 140 7 15
17 27 22 25 5 -2 31 -43 57 -92z m-896 -213 c4 -4 5 2 2 13 -4 11 -13 49 -21
85 l-15 65 35 -40 c20 -22 48 -57 63 -77 l28 -37 -18 -73 c-10 -40 -19 -98
-19 -128 l-1 -55 -59 65 c-52 57 -60 72 -71 128 -12 64 -7 133 13 207 l11 40
22 -93 c12 -51 26 -96 30 -100z m-367 52 c59 -31 137 -79 174 -106 145 -106
308 -314 367 -467 37 -97 92 -454 95 -626 2 -74 0 -108 -5 -90 -5 17 -22 84
-38 150 -17 66 -41 157 -55 201 -14 45 -31 133 -40 195 l-15 114 4 -85 c4 -66
2 -78 -5 -55 -6 17 -9 71 -8 120 2 87 1 92 -36 162 -46 87 -146 207 -224 269
-31 25 -106 76 -167 115 -60 38 -121 77 -135 86 l-25 17 24 -27 c14 -15 79
-64 145 -109 125 -85 251 -200 279 -254 15 -29 60 -214 73 -304 l7 -45 -55 51
c-30 29 -72 61 -94 72 -21 11 -47 34 -57 51 -10 17 -22 30 -26 28 -5 -1 -18 9
-30 23 -18 21 -17 17 6 -29 25 -50 27 -61 25 -165 -3 -106 6 -162 43 -261 9
-25 -124 216 -213 385 -36 68 -76 156 -89 195 l-24 70 7 -59 c20 -189 116
-415 233 -549 18 -20 28 -37 23 -37 -6 0 -14 5 -17 10 -11 18 -122 69 -181 85
-32 8 -58 16 -60 18 -12 12 -55 209 -64 291 -11 95 -8 151 15 349 3 31 0 25
-12 -23 -12 -48 -17 -108 -17 -225 1 -166 0 -159 60 -373 6 -21 5 -22 -21 -12
-37 14 -41 7 -20 -35 9 -20 14 -39 11 -42 -10 -10 -45 62 -82 171 -37 106 -38
117 -39 241 0 116 4 144 34 260 30 113 35 146 35 251 l0 121 43 -33 c24 -18
92 -59 151 -90z m2181 54 c-38 -74 -69 -178 -100 -338 -38 -190 -85 -338 -145
-450 -52 -98 -51 -94 10 57 79 194 97 269 101 423 2 74 1 115 -1 90 -22 -236
-25 -257 -63 -369 -50 -149 -119 -298 -120 -258 -1 23 -5 27 -30 27 -29 0 -91
-41 -256 -168 -43 -33 -81 -59 -83 -57 -2 2 18 32 45 67 70 90 105 148 161
268 111 235 142 297 167 338 14 23 24 42 22 42 -7 0 -118 -173 -172 -270 -116
-203 -156 -269 -201 -330 l-49 -65 -6 110 c-7 129 -1 146 102 285 34 47 52 76
39 65 -31 -28 -146 -176 -160 -207 -8 -17 -18 -24 -30 -21 -22 6 -75 -20 -114
-56 l-28 -26 22 45 c62 123 166 246 289 342 80 62 96 78 56 53 -104 -64 -199
-155 -280 -270 -44 -63 -105 -173 -105 -190 0 -19 -107 -118 -114 -106 -4 6
-12 9 -17 6 -25 -16 33 182 76 260 74 132 218 282 365 382 73 49 198 108 305
143 93 30 215 84 215 95 0 2 -20 -4 -44 -14 -24 -11 -88 -31 -142 -46 -130
-36 -212 -69 -310 -126 -135 -79 -285 -236 -387 -402 -35 -56 -38 -58 -32 -27
10 49 58 142 112 219 133 188 344 325 633 412 74 22 167 55 205 74 39 18 73
34 78 34 4 1 -2 -18 -14 -41z m-800 -225 c1 -34 -2 -64 -6 -66 -5 -3 -8 25 -8
61 0 37 -3 85 -7 107 l-7 40 14 -40 c7 -22 14 -68 14 -102z m-390 -292 c65
-191 76 -385 31 -571 -30 -124 -119 -391 -120 -360 0 3 11 40 25 83 13 43 21
86 18 95 -3 13 -2 14 4 4 7 -9 20 27 41 115 18 70 32 137 31 148 -1 25 -1 24
-35 -117 -15 -65 -31 -118 -34 -118 -7 0 -27 47 -46 110 -11 36 -14 74 -11
110 5 54 5 55 -7 17 l-12 -38 -27 42 c-23 34 -28 54 -28 103 -1 34 -4 138 -7
231 l-7 170 -19 -85 c-14 -62 -21 -142 -25 -295 -3 -115 -10 -215 -14 -222 -4
-7 -13 -10 -20 -7 -10 3 -14 41 -16 137 -1 72 -5 134 -7 136 -2 2 -4 -53 -4
-122 0 -101 -3 -127 -14 -127 -25 0 -35 25 -55 144 -25 141 -26 205 -6 319 19
111 52 202 128 359 l62 128 72 -151 c40 -83 86 -190 102 -238z m1547 -110
c-53 -136 -133 -261 -165 -258 -17 1 -13 8 24 48 44 47 68 85 79 129 5 17 0
13 -14 -12 -46 -84 -147 -161 -205 -156 l-36 3 65 49 c37 28 66 51 66 52 0 1
-35 -15 -77 -37 -108 -53 -110 -53 -177 -15 l-59 33 49 34 c27 19 96 53 154
76 113 46 125 59 16 18 -85 -32 -162 -70 -203 -101 -42 -32 -49 -17 -15 35 20
31 46 51 102 80 96 50 222 94 330 116 47 9 89 21 94 26 22 20 16 -7 -28 -120z
m-3170 49 c141 -15 216 -42 275 -99 29 -28 49 -56 49 -69 0 -28 -2 -27 -49 3
-54 36 -129 63 -247 89 l-102 23 39 -50 c42 -53 49 -70 22 -60 -12 5 -14 3 -8
-8 23 -37 -43 22 -72 65 -39 58 -42 53 -8 -14 20 -40 22 -50 10 -50 -21 0 -44
40 -75 128 -15 43 -30 85 -35 94 -5 14 5 12 52 -12 43 -22 82 -33 149 -40z
m2914 14 c-47 -14 -109 -36 -138 -49 -61 -28 -60 -15 1 17 60 31 146 57 187
57 27 0 15 -6 -50 -25z m-1966 -207 c86 -88 177 -239 221 -366 17 -47 22 -77
17 -87 -7 -12 -14 -2 -32 40 -34 86 -35 60 -1 -34 17 -45 28 -87 25 -91 -12
-19 -22 -7 -39 47 -9 30 -19 53 -22 50 -3 -2 0 -21 7 -40 23 -71 6 -71 -41 0
-26 38 -54 84 -63 102 -9 17 -19 32 -21 32 -8 0 55 -121 87 -168 58 -84 21
-50 -55 51 -121 161 -187 311 -187 427 0 45 21 90 41 90 6 0 34 -24 63 -53z
m-1251 9 c29 -12 111 -95 103 -104 -2 -1 -38 11 -81 28 -114 45 -102 30 16
-20 91 -39 104 -48 130 -89 16 -25 29 -48 29 -52 0 -5 -21 -6 -47 -3 -27 3
-61 1 -78 -5 -26 -8 -21 -10 40 -12 39 -1 61 -4 49 -6 -12 -2 -27 -15 -34 -29
-21 -38 -79 -34 -129 11 -58 53 -153 169 -184 228 l-28 52 28 6 c51 12 153 9
186 -5z m281 -56 c167 -42 305 -87 496 -161 23 -9 91 -109 74 -109 -4 0 3 -12
17 -27 13 -15 17 -23 9 -17 -8 6 -67 28 -130 49 -63 21 -188 71 -277 111 -90
40 -163 70 -163 68 0 -12 312 -158 415 -194 118 -41 216 -92 247 -127 9 -10
29 -40 45 -68 27 -46 28 -53 19 -96 l-11 -46 -136 66 c-75 36 -135 61 -132 55
2 -5 44 -30 94 -55 121 -59 124 -70 4 -14 -52 24 -95 42 -95 40 0 -3 41 -25
91 -50 50 -25 108 -59 130 -74 l39 -29 -25 -16 c-16 -10 -25 -26 -25 -41 0
-14 -2 -25 -5 -25 -2 0 -35 11 -71 25 -76 29 -146 69 -219 127 l-50 40 47 -44
c58 -53 137 -102 220 -135 69 -28 84 -38 99 -64 9 -17 6 -17 -43 -3 -103 30
-249 110 -331 181 -111 97 -174 174 -305 373 -64 97 -144 205 -180 242 -36 38
-62 68 -57 68 4 0 99 -23 209 -50z m2070 -103 c-2 -124 -17 -203 -55 -282 -30
-62 -195 -266 -239 -294 l-25 -16 18 28 c10 15 15 33 11 39 -4 6 -3 8 4 5 5
-4 27 17 48 45 20 29 28 46 18 37 -41 -34 -44 -31 -24 21 11 28 18 56 14 61
-3 5 4 26 16 47 l21 37 -31 -35 -31 -35 36 73 c19 39 33 72 31 72 -8 0 -101
-161 -153 -263 -52 -103 -66 -99 -29 8 13 39 27 79 31 90 l7 20 -13 -20 c-7
-11 -24 -45 -36 -75 -19 -44 -23 -48 -17 -20 12 64 54 164 101 239 69 110 184
261 232 304 59 53 66 42 65 -86z m406 19 c0 -47 -21 -131 -46 -185 -35 -77
-104 -182 -115 -175 -5 3 -8 1 -7 -3 8 -24 -136 -236 -201 -297 l-31 -30 0 27
c0 14 3 28 8 31 4 2 23 26 41 53 38 54 30 49 -22 -14 -30 -37 -37 -40 -48 -27
-10 13 -5 23 32 62 l44 47 -45 -42 c-25 -24 -54 -43 -65 -43 -15 0 -5 15 40
62 l60 62 -54 -47 c-30 -26 -56 -45 -59 -42 -3 3 12 20 34 39 22 19 62 60 89
93 l50 58 -75 -68 c-41 -37 -76 -63 -78 -57 -2 5 -10 10 -17 10 -16 0 -14 21
4 46 14 19 -14 -9 -123 -127 -98 -105 -115 -100 -25 8 150 179 183 215 289
309 58 51 150 134 205 184 55 49 103 90 108 90 4 0 7 -11 7 -24z m883 -55 c48
-11 92 -23 98 -27 6 -3 -23 -21 -63 -38 -164 -71 -266 -155 -436 -358 -88
-104 -187 -187 -278 -233 -38 -19 -70 -33 -71 -31 -6 6 70 107 102 135 16 14
52 48 80 75 l50 48 -55 -44 c-96 -77 -89 -75 -74 -16 8 29 14 60 14 70 0 23
-38 48 -75 48 l-30 1 39 32 c169 138 268 198 386 234 43 13 64 22 49 22 -33 1
-151 -35 -204 -61 -50 -26 -269 -174 -310 -210 -26 -22 -200 -120 -182 -102 3
4 -6 29 -20 57 l-26 51 43 39 c47 41 135 86 272 137 49 19 86 35 84 38 -8 7
-165 -48 -252 -88 l-81 -37 34 56 c18 31 39 73 45 95 10 31 20 42 54 57 52 24
191 57 286 69 119 15 418 4 521 -19z m-2633 -53 c77 -36 195 -151 333 -323
101 -126 133 -176 61 -95 -27 30 -64 70 -83 90 -30 31 -29 30 6 -15 21 -27 54
-70 73 -95 41 -54 34 -49 -140 110 -129 118 -121 105 37 -61 73 -77 91 -101
86 -118 -7 -26 -3 -28 -162 124 -76 73 -81 76 -56 36 15 -24 47 -72 71 -108
24 -35 44 -68 44 -74 0 -36 -81 38 -148 134 -27 39 -80 124 -117 187 -37 63
-87 143 -111 177 -23 34 -40 64 -36 67 11 11 77 -6 142 -36z m778 -55 c29 -70
45 -157 45 -249 0 -128 -19 -137 -27 -13 -11 159 -23 191 -18 47 3 -86 1 -128
-6 -128 -6 0 -15 28 -20 63 l-9 62 -3 -60 c-2 -50 -4 -55 -10 -30 l-8 30 -1
-30 c-1 -23 -3 -27 -11 -15 -7 11 -10 11 -10 2 0 -7 -4 -10 -10 -7 -5 3 -11
30 -12 58 -1 51 -2 51 -5 9 -5 -51 -23 -46 -23 6 0 69 77 302 100 302 4 0 17
-21 28 -47z m-1838 -100 l65 -7 -50 -7 c-27 -4 -76 -8 -107 -8 -108 -2 -168
-45 -168 -119 0 -79 71 -214 149 -284 45 -40 208 -124 358 -184 40 -16 73 -32
73 -35 0 -3 -11 -11 -24 -17 -35 -16 -146 17 -261 76 -120 62 -226 165 -278
272 -39 80 -67 174 -67 226 0 45 42 77 123 94 41 8 58 8 187 -7z m325 -56 c37
-13 57 -27 78 -57 16 -22 27 -40 25 -40 -2 0 -32 9 -68 21 -60 19 -283 40
-270 26 3 -3 52 -11 109 -16 126 -13 232 -48 277 -92 19 -18 32 -34 31 -35 -2
-2 -32 6 -67 17 -35 11 -67 18 -72 17 -5 -2 30 -16 79 -32 73 -24 97 -37 143
-80 30 -28 72 -66 94 -83 33 -27 38 -35 32 -60 -18 -78 -34 -93 -99 -93 -70 0
-251 102 -369 208 -71 65 -75 68 -28 18 79 -82 172 -150 275 -201 84 -41 88
-44 54 -45 -96 -1 -223 76 -386 231 -119 114 -150 137 -237 173 -38 16 -39 16
-24 -1 8 -10 32 -51 53 -90 20 -40 56 -93 79 -118 24 -25 40 -48 37 -52 -3 -3
0 -3 6 1 23 13 93 -16 116 -48 l22 -31 -25 16 c-69 43 -100 60 -100 55 0 -3
56 -43 125 -88 182 -119 168 -121 -79 -14 -166 72 -201 93 -258 154 -61 65
-99 142 -105 213 -13 137 13 149 317 145 140 -2 197 -7 235 -19z m3318 -134
c-27 -60 -77 -136 -110 -166 -19 -16 -20 -14 -51 47 -56 112 -56 111 -14 130
47 20 139 44 174 45 l27 1 -26 -57z m-1502 20 c-12 -20 -14 -14 -5 12 4 9 9
14 11 11 3 -2 0 -13 -6 -23z m859 -72 c0 -66 -62 -175 -151 -264 -69 -69 -91
-84 -204 -138 -133 -64 -188 -76 -66 -15 39 20 71 39 71 41 0 3 -18 -4 -40
-15 -21 -11 -46 -20 -54 -20 -17 0 -44 42 -30 47 21 7 128 72 120 73 -5 0 -1
10 10 23 l19 22 -25 -21 c-51 -42 -171 -100 -155 -74 3 5 -2 13 -10 18 -14 7
-10 13 22 35 21 14 56 42 78 61 l40 35 -43 -21 c-44 -21 -102 -33 -86 -18 5 5
65 50 134 101 132 97 217 142 296 157 76 15 74 16 74 -27z m-1695 -31 c10 -11
16 -20 13 -20 -3 0 -13 9 -23 20 -10 11 -16 20 -13 20 3 0 13 -9 23 -20z
m-274 -7 c13 -16 12 -17 -3 -4 -17 13 -22 21 -14 21 2 0 10 -8 17 -17z m804
-23 c20 -17 16 -59 -7 -74 -13 -8 -26 -6 -55 8 -34 16 -38 16 -49 1 -18 -25
-47 -14 -66 24 l-17 34 -10 -26 c-7 -17 -7 -36 -2 -51 8 -20 3 -28 -36 -61
-51 -43 -75 -40 -81 9 -4 31 42 80 119 129 40 25 51 27 116 24 40 -2 79 -10
88 -17z m-440 -60 c21 -22 37 -40 34 -40 -3 0 -23 18 -44 40 -21 22 -37 40
-34 40 3 0 23 -18 44 -40z m593 -11 c46 -20 51 -32 23 -68 -15 -19 -21 -21
-38 -13 -36 20 -47 40 -32 59 13 15 12 15 -8 5 -49 -26 -89 -6 -58 28 20 22
42 20 113 -11z m-728 -26 c68 -31 124 -72 141 -104 6 -12 -13 -2 -52 26 -33
25 -65 45 -69 45 -5 0 -17 3 -27 6 -10 3 1 -6 25 -21 47 -29 50 -43 5 -28 -31
11 -91 6 -110 -9 -7 -6 -13 -24 -13 -41 l0 -31 -31 30 c-17 16 -40 42 -51 57
-22 31 -40 92 -29 103 16 16 148 -4 211 -33z m1081 27 c40 -22 10 -110 -51
-149 l-25 -16 23 29 c33 43 27 56 -8 16 -16 -19 -29 -31 -30 -26 0 5 -7 3 -15
-4 -24 -20 -19 12 7 46 l22 29 -25 -22 c-26 -23 -45 -31 -34 -14 3 5 -4 12
-15 16 -25 8 -25 13 3 47 41 50 105 71 148 48z m-571 -29 c-100 -31 -220 -149
-220 -217 0 -10 -3 -14 -6 -11 -4 4 -1 28 7 54 9 35 28 63 69 105 56 55 97 76
150 76 l25 0 -25 -7z m332 -38 c24 -22 23 -38 -7 -57 -33 -22 -42 -20 -61 9
-16 24 -16 27 1 45 22 24 43 25 67 3z m1354 6 c83 -14 207 -56 284 -95 71 -36
143 -85 267 -184 l81 -64 -51 -17 c-29 -9 -140 -61 -247 -116 -268 -136 -453
-193 -623 -193 -52 1 -91 6 -107 15 l-25 14 31 1 c18 0 85 13 150 30 130 33
313 116 374 171 l35 31 -45 -30 c-135 -89 -356 -171 -481 -179 -57 -4 -81 -2
-91 8 -13 11 -5 16 52 30 93 24 141 46 147 67 2 11 44 38 106 69 126 62 269
148 261 156 -18 17 -161 -47 -323 -145 -34 -21 -66 -38 -71 -38 -4 0 -20 10
-36 23 l-29 22 40 6 40 6 -42 2 c-31 1 -59 12 -103 40 -33 22 -85 49 -115 62
-83 34 -83 34 95 65 64 12 156 17 282 18 194 1 207 6 67 27 -103 15 -236 7
-424 -25 -77 -14 -141 -23 -143 -22 -5 5 44 51 59 55 7 1 39 11 70 21 31 10
91 23 135 30 133 19 169 28 94 23 -62 -4 -130 -14 -195 -28 -17 -3 13 15 65
40 94 46 96 46 170 40 102 -9 206 -30 325 -66 177 -55 383 -163 371 -195 -3
-9 -1 -12 4 -9 22 14 7 36 -52 78 -152 108 -380 191 -593 216 -49 6 -94 11
-100 11 -14 0 27 27 50 33 37 9 181 7 241 -4z m-1678 -46 c-5 -26 -38 -29 -38
-4 0 15 6 21 21 21 14 0 19 -5 17 -17z m76 9 c9 -14 -12 -35 -28 -29 -23 9
-20 37 3 37 11 0 22 -4 25 -8z m66 -17 c0 -19 -20 -29 -32 -17 -8 8 -7 16 2
26 14 17 30 12 30 -9z m-395 -7 c30 -14 30 -10 5 -76 -11 -29 -20 -67 -21 -85
-2 -86 -31 -82 -31 4 0 58 -4 58 -17 3 -9 -35 -10 -31 -8 37 2 52 8 83 20 102
20 31 18 31 52 15z m195 -3 c0 -8 -7 -15 -15 -15 -8 0 -15 7 -15 15 0 8 7 15
15 15 8 0 15 -7 15 -15z m820 10 c0 -2 -10 -9 -22 -15 -22 -11 -22 -10 -4 4
21 17 26 19 26 11z m-576 -24 c7 -10 -22 -37 -30 -28 -9 8 3 37 15 37 5 0 12
-4 15 -9z m-628 -26 c38 -22 64 -51 64 -69 0 -3 -15 3 -32 14 -43 26 -58 26
-24 -1 14 -11 24 -24 21 -29 -3 -5 0 -12 6 -16 8 -5 9 -3 4 6 -5 8 -4 11 3 6
6 -4 9 -13 5 -22 -4 -12 -13 -10 -52 12 l-46 27 30 -34 c48 -54 49 -55 39 -39
-4 8 6 2 23 -15 39 -38 28 -42 -36 -14 -77 33 -170 145 -154 186 9 24 101 16
149 -12z m527 14 c46 -12 100 -58 117 -99 18 -44 8 -130 -20 -170 -69 -97
-234 -89 -295 14 -43 73 -30 161 32 219 47 43 99 55 166 36z m296 -15 c29 -37
38 -111 17 -132 -15 -15 -18 -15 -26 -2 -5 8 -10 24 -10 35 0 11 -5 27 -10 35
-7 11 -9 2 -5 -30 5 -42 4 -40 -19 25 -22 64 -22 70 -7 82 24 19 37 16 60 -13z
m-479 -4 c0 -13 -7 -20 -20 -20 -13 0 -20 7 -20 20 0 13 7 20 20 20 13 0 20
-7 20 -20z m324 -15 c3 -9 -1 -18 -10 -22 -19 -7 -39 11 -30 26 10 16 33 13
40 -4z m-376 -44 c-5 -24 -38 -27 -38 -3 0 10 3 21 6 25 11 11 35 -5 32 -22z
m-633 -6 c78 -17 190 -67 199 -90 6 -17 -5 -15 -99 11 -27 8 -81 16 -120 19
l-70 4 60 -9 c67 -11 236 -57 247 -68 4 -4 -66 -7 -155 -7 -146 0 -384 -21
-373 -33 3 -2 67 1 143 8 76 6 176 10 223 8 l85 -3 -65 -11 -65 -11 97 -2 c53
0 99 -5 102 -10 4 -5 -38 -17 -91 -26 -54 -9 -102 -18 -108 -20 -15 -6 147 6
165 11 10 3 11 2 5 -4 -5 -5 -70 -24 -143 -41 -166 -39 -257 -41 -357 -7 -38
14 -71 23 -73 21 -7 -6 107 -44 164 -54 72 -13 328 1 424 23 36 9 76 15 90 15
50 -2 -358 -79 -450 -85 -147 -10 -235 18 -375 119 -38 28 -98 65 -133 82
l-62 31 82 24 c46 13 95 29 110 37 16 7 74 29 130 48 95 32 113 35 223 35 68
0 151 -7 190 -15z m1045 1 c0 -20 -19 -31 -32 -18 -6 6 -7 15 -4 21 10 16 36
13 36 -3z m382 2 c22 -6 47 -22 55 -34 13 -20 13 -26 0 -51 -20 -37 -52 -66
-104 -92 -68 -34 -70 -24 -4 24 71 52 80 67 19 31 -24 -14 -55 -29 -70 -35
-44 -17 -35 12 14 48 42 31 34 42 -12 16 -35 -20 -40 -19 -40 9 0 14 10 32 22
40 26 18 20 20 -16 6 -30 -11 -34 0 -8 22 34 30 80 35 144 16z m-812 -63 c0
-18 -5 -25 -19 -25 -11 0 -23 5 -26 10 -11 18 3 40 25 40 15 0 20 -7 20 -25z
m448 2 c2 -12 -3 -17 -17 -17 -15 0 -21 6 -21 21 0 25 33 22 38 -4z m110 -53
c27 -19 30 -70 6 -120 -21 -45 -51 -62 -71 -41 -14 13 -13 22 1 79 9 35 16 72
16 81 0 21 19 22 48 1z m-550 -20 c3 -22 -21 -39 -39 -28 -11 6 -12 38 -2 48
13 13 38 1 41 -20z m442 6 c0 -13 -7 -20 -20 -20 -13 0 -20 7 -20 20 0 13 7
20 20 20 13 0 20 -7 20 -20z m-1846 -2 c-4 -7 -16 -24 -28 -37 l-21 -24 23 12
c12 6 22 8 22 2 0 -5 -41 -33 -91 -62 -51 -30 -144 -98 -208 -151 -129 -108
-183 -138 -301 -170 -44 -12 -79 -23 -77 -24 2 -2 46 3 99 11 139 21 211 53
355 162 69 52 150 106 182 122 78 39 158 64 184 57 12 -3 55 -30 95 -59 l72
-54 -94 -7 c-107 -7 -204 -34 -289 -78 -31 -17 -56 -32 -55 -34 2 -1 43 8 92
21 173 47 325 51 437 14 73 -25 76 -43 12 -57 -44 -9 -41 -10 32 -6 l80 5 -40
-22 c-98 -54 -306 -115 -440 -129 l-80 -9 100 3 c102 3 298 47 391 86 l41 18
-39 -58 c-34 -51 -47 -62 -96 -80 -81 -30 -141 -40 -252 -40 -157 0 -307 37
-427 106 l-48 27 39 -41 c101 -106 320 -171 585 -173 l126 -1 -90 -21 c-70
-16 -126 -21 -252 -21 -94 -1 -151 -4 -135 -9 52 -14 236 -8 352 13 63 11 123
20 133 20 36 0 15 -18 -45 -38 -117 -37 -180 -47 -323 -46 -115 0 -164 5 -270
28 -168 36 -374 104 -500 166 l-100 48 50 3 c45 2 42 3 -23 8 l-74 6 74 51
c40 28 124 98 187 155 152 139 200 174 306 225 80 38 230 85 267 83 7 0 -34
-17 -92 -38 -105 -38 -208 -86 -245 -115 -11 -9 25 7 80 34 55 27 142 63 192
81 51 17 90 35 87 40 -3 5 7 9 21 9 18 0 24 -4 19 -12z m1295 -55 c14 -50 14
-76 -1 -91 -19 -19 -26 -15 -48 28 -26 51 -26 78 3 90 34 13 35 13 46 -27z
m1345 21 c33 -9 88 -29 122 -44 65 -31 157 -106 151 -123 -6 -19 -81 -38 -202
-49 -125 -11 -147 -9 -574 53 -175 26 -94 31 214 15 l70 -4 -50 13 c-27 7 -86
14 -130 15 -74 2 -77 3 -35 11 25 4 86 8 135 9 65 2 83 4 65 11 -24 8 70 5
210 -6 43 -3 49 -2 26 5 -56 18 -222 32 -311 27 -49 -3 -81 -3 -70 0 11 3 25
9 31 14 9 7 85 22 219 43 17 2 -15 3 -70 2 -95 -3 -98 -2 -55 10 64 17 182 17
254 -2z m-1547 0 c-3 -3 -12 -4 -19 -1 -8 3 -5 6 6 6 11 1 17 -2 13 -5z m733
-25 c0 -25 -33 -22 -38 4 -2 12 3 17 17 17 15 0 21 -6 21 -21z m-410 -4 c13
-16 6 -35 -15 -35 -18 0 -28 17 -21 35 7 19 20 19 36 0z m367 -31 c9 -23 -11
-38 -26 -20 -13 16 -7 36 10 36 5 0 12 -7 16 -16z m-669 -9 c-12 -12 -265 -75
-298 -74 -21 0 24 15 115 39 142 37 195 47 183 35z m361 -4 c12 -8 12 -12 2
-25 -16 -19 -51 -21 -51 -3 0 13 19 37 30 37 3 0 11 -4 19 -9z m736 -1 c-3 -6
-41 -9 -83 -8 l-77 2 70 6 c39 4 76 7 83 8 7 1 10 -2 7 -8z m-467 -22 c18 -18
14 -38 -7 -38 -20 0 -35 25 -25 41 7 12 18 11 32 -3z m-595 -15 c-7 -2 -21 -2
-30 0 -10 3 -4 5 12 5 17 0 24 -2 18 -5z m243 -29 c41 -42 43 -70 9 -86 -23
-10 -29 -8 -60 22 -33 32 -46 76 -28 93 16 16 48 4 79 -29z m144 12 c0 -15 -7
-26 -20 -29 -26 -7 -34 7 -20 33 15 28 40 26 40 -4z m160 -7 c0 -24 -23 -21
-28 4 -2 10 3 17 12 17 10 0 16 -9 16 -21z m-100 -19 c0 -23 -4 -30 -20 -30
-16 0 -20 7 -20 30 0 23 4 30 20 30 16 0 20 -7 20 -30z m58 2 c3 -17 -2 -22
-17 -22 -16 0 -21 6 -21 26 0 33 33 30 38 -4z m203 18 c10 -6 19 -19 19 -29 0
-49 -152 -126 -200 -101 -35 19 -25 47 25 69 25 11 60 32 78 46 35 27 49 30
78 15z m-648 -46 c-61 -28 -67 -38 -20 -29 l32 6 -35 -21 c-19 -11 -26 -19
-15 -16 11 2 36 7 55 11 32 5 33 5 17 -9 -18 -14 -17 -15 10 -18 25 -3 22 -5
-27 -24 -30 -12 -71 -26 -90 -32 l-35 -10 51 -1 c28 -1 73 6 99 14 27 8 51 13
53 11 9 -9 -63 -49 -98 -53 -43 -6 -133 12 -167 33 -26 16 -22 44 13 90 32 44
98 74 159 73 l50 0 -52 -25z m863 -34 c81 -35 158 -125 152 -177 -2 -23 -9
-29 -43 -36 -55 -12 -128 -2 -180 24 -43 21 -143 114 -134 123 3 3 25 -8 49
-25 47 -32 135 -79 146 -79 4 0 -19 17 -52 38 -32 22 -68 49 -78 60 -19 22
-19 22 6 22 13 0 45 -11 71 -23 59 -30 51 -16 -11 20 -57 34 -33 46 29 15 28
-14 36 -15 27 -5 -6 8 -29 23 -50 34 -80 41 -24 49 68 9z m-1161 -25 c-77 -25
-69 -34 9 -10 67 20 86 3 25 -23 -24 -11 -55 -23 -69 -27 -36 -11 -191 -90
-215 -110 -11 -8 18 3 65 26 91 45 220 92 220 81 0 -4 -36 -26 -80 -50 -44
-24 -80 -45 -80 -48 0 -2 36 14 80 36 l80 40 -20 -32 c-11 -18 -20 -36 -20
-40 0 -3 23 2 50 13 28 10 60 19 73 19 24 0 -3 -18 -143 -92 -41 -21 -64 -36
-50 -33 14 4 67 29 119 56 90 47 95 49 118 33 l25 -16 -34 -25 c-67 -50 -203
-108 -298 -127 -14 -3 -2 -3 25 -1 66 5 140 33 249 95 48 28 90 49 93 47 6 -7
-88 -72 -144 -100 -71 -36 -142 -58 -198 -62 -27 -2 -81 -9 -120 -15 -64 -10
-144 -8 -219 7 -25 4 -27 8 -22 35 10 48 72 143 127 192 88 79 277 155 384
155 38 -1 37 -2 -30 -24z m601 9 c27 -7 32 -35 9 -54 -11 -9 -25 -10 -65 0
-27 7 -50 16 -50 20 0 15 53 51 68 45 8 -3 25 -8 38 -11z m1039 -45 c78 -17
262 -111 336 -172 93 -77 154 -165 184 -266 l7 -24 -133 6 c-313 16 -517 78
-678 209 -57 46 -62 53 -45 60 15 7 35 1 81 -25 73 -42 180 -85 225 -93 18 -2
-2 9 -46 25 -43 17 -106 47 -140 67 -58 33 -62 39 -62 71 1 25 5 33 16 29 82
-26 215 -64 217 -62 2 2 -25 13 -59 26 -105 37 -158 62 -153 70 4 7 52 -7 280
-85 13 -4 12 -1 -5 9 -14 8 -78 34 -143 57 -65 23 -115 44 -112 47 2 3 0 11
-6 19 -16 19 33 9 161 -34 170 -57 315 -136 420 -228 l55 -49 -45 48 c-92 98
-255 192 -435 251 -44 14 -86 28 -94 31 -11 3 -11 7 0 20 14 17 71 15 174 -7z
m-966 -65 l9 -39 1 45 c1 48 17 45 24 -5 4 -27 4 -26 6 8 1 34 4 38 24 35 18
-2 23 -10 25 -40 2 -20 -2 -46 -8 -58 -14 -27 -54 -52 -72 -45 -37 15 -63 106
-36 133 15 15 16 14 27 -34z m1785 -6 c32 2 167 -74 238 -133 37 -30 82 -77
101 -103 28 -38 137 -225 137 -235 0 -1 -29 -3 -64 -4 -58 -2 -179 -34 -200
-53 -5 -5 -15 -6 -24 -3 -9 4 -13 2 -9 -4 8 -13 -108 -66 -206 -93 -116 -33
-228 -37 -339 -11 -51 12 -98 25 -104 29 -6 4 -23 27 -39 51 l-27 44 23 -7
c13 -4 80 -9 149 -11 l125 -3 -120 8 c-132 8 -170 18 -177 48 -5 18 1 20 78
27 46 4 122 4 169 0 l85 -7 -15 28 c-28 54 -95 207 -92 211 2 2 70 -13 151
-32 186 -45 211 -44 41 1 -151 40 -225 63 -225 71 0 24 36 113 48 118 34 13
281 -109 407 -202 l60 -44 -45 42 c-66 60 -121 97 -248 161 -61 31 -108 59
-103 62 5 4 29 9 53 12 38 5 56 1 130 -35 142 -67 257 -151 363 -264 99 -104
111 -100 24 8 -62 76 -164 151 -329 241 l-130 71 33 11 c17 5 39 8 47 5 8 -3
24 -5 34 -5z m-2011 -21 c-4 -7 -26 -40 -50 -75 -24 -35 -43 -68 -43 -73 0 -6
35 26 77 71 43 45 79 77 81 71 2 -6 -4 -21 -12 -33 -28 -39 -17 -45 15 -8 27
32 30 33 23 10 -9 -35 -32 -79 -62 -120 l-25 -35 32 30 c18 16 46 52 62 80 32
53 30 29 -3 -42 -43 -91 -145 -163 -234 -165 -68 -1 -71 6 -50 125 5 30 12 42
25 42 12 0 141 117 137 124 -3 4 4 8 15 8 13 1 17 -2 12 -10z m-98 -57 c-32
-33 -61 -57 -64 -54 -6 6 105 114 117 114 3 0 -20 -27 -53 -60z m735 -110 c25
-19 77 -61 115 -94 68 -58 67 -56 -25 38 -63 65 -87 96 -72 92 12 -3 32 -9 45
-12 12 -3 35 -18 52 -33 l30 -26 -24 28 c-32 35 -15 35 35 -1 38 -28 87 -78
132 -137 l23 -30 -18 34 c-10 18 -45 63 -78 99 -40 44 -50 59 -29 45 71 -50
155 -160 207 -270 25 -54 32 -84 35 -151 3 -48 0 -88 -5 -93 -16 -16 -156 43
-245 101 -108 71 -188 163 -249 285 -58 119 -64 145 -11 56 20 -36 71 -99 112
-141 41 -42 61 -60 44 -41 -77 89 -149 202 -137 214 3 4 -2 16 -12 27 -10 11
-16 23 -12 26 3 3 74 -63 157 -148 l152 -153 -118 135 c-65 74 -147 167 -184
205 -36 39 -74 81 -84 95 -10 14 12 -7 50 -46 38 -39 89 -86 114 -104z m-230
98 c40 -85 55 -158 40 -203 -6 -19 -17 -35 -25 -35 -28 0 -83 77 -95 134 -17
81 -9 101 19 51 15 -27 20 -32 16 -15 -3 14 -8 41 -10 60 l-5 35 21 -40 c20
-39 20 -39 15 -9 -3 18 -8 43 -12 58 -11 45 6 28 36 -36z m-289 -115 c-28 -72
-81 -153 -101 -153 -4 0 12 30 36 67 24 37 54 93 66 125 13 32 24 54 26 49 2
-5 -11 -44 -27 -88z m117 -242 c1 4 7 53 13 110 5 56 13 107 16 113 12 19 31
-59 33 -134 1 -41 6 -102 10 -135 l7 -60 2 80 c1 93 10 155 22 155 14 0 39
-137 40 -222 1 -73 2 -78 9 -38 8 43 -2 180 -16 224 -6 20 -6 20 13 4 11 -10
24 -18 30 -18 12 0 29 -60 38 -140 13 -107 -28 -261 -82 -312 -24 -23 -25 -23
-40 -3 -86 115 -140 363 -117 541 l9 69 5 -120 c4 -66 7 -117 8 -114z m-570
178 c28 -10 30 -13 21 -37 -37 -97 -235 -311 -358 -387 -34 -21 -61 -39 -61
-41 0 -11 26 1 95 47 94 61 176 137 257 239 34 41 66 78 72 81 24 14 56 20 56
11 0 -9 -73 -110 -146 -202 -21 -26 -13 -22 31 19 33 30 77 72 97 95 21 23 38
36 38 30 0 -16 -168 -202 -251 -275 -117 -105 -200 -162 -388 -271 -185 -106
-301 -177 -301 -185 0 -5 5 -2 65 36 22 13 92 49 155 78 l114 54 -58 -63 c-32
-35 -75 -81 -95 -103 -21 -22 -94 -84 -162 -137 -139 -107 -205 -171 -89 -85
151 112 335 245 337 244 1 -1 -5 -49 -13 -107 -7 -58 -14 -134 -15 -170 l-1
-65 -15 45 c-9 26 -15 84 -16 140 l-1 96 -42 -42 c-23 -23 -102 -83 -177 -133
-74 -49 -138 -95 -142 -101 -3 -5 -15 -14 -25 -20 -17 -9 -17 -4 6 68 14 42
47 161 74 263 49 186 99 332 159 463 39 87 145 247 211 319 l49 54 48 -8 c26
-4 75 -8 107 -8 l60 -1 -75 -51 c-95 -65 -180 -148 -230 -224 -22 -33 -28 -44
-13 -25 63 80 192 197 264 237 117 66 120 63 34 -33 -86 -95 -177 -211 -208
-266 -13 -23 -2 -14 34 27 132 150 361 358 376 342 9 -8 -24 -56 -80 -117
l-51 -55 53 50 c30 28 68 70 85 95 24 34 72 86 83 90 1 0 15 -5 32 -11z m71
-55 c-7 -8 -21 -20 -31 -25 -15 -8 -14 -2 9 32 20 31 29 38 31 25 2 -9 -2 -24
-9 -32z m-1397 -98 l86 -22 -51 -31 c-29 -17 -65 -35 -82 -42 -27 -10 -25 -11
26 -8 33 2 73 13 98 25 54 28 60 28 31 -4 -19 -19 -21 -27 -12 -33 31 -19 -37
-46 -149 -61 -90 -11 -145 -2 -172 27 -14 17 -11 24 41 101 47 69 59 82 76 77
12 -3 60 -16 108 -29z m3070 -90 c110 -154 221 -437 258 -653 15 -87 20 -162
20 -309 l0 -194 -62 51 c-39 31 -119 78 -208 120 -178 86 -231 113 -296 155
-126 79 -304 262 -304 312 0 20 24 0 138 -115 75 -77 148 -145 160 -152 13 -7
-10 20 -52 59 -78 75 -102 112 -42 67 18 -14 123 -76 232 -138 213 -119 244
-139 315 -203 25 -23 18 -14 -16 19 -41 41 -114 92 -230 162 -269 160 -371
244 -444 363 l-29 48 26 24 c40 36 88 68 104 68 21 0 167 -154 218 -229 23
-35 74 -96 113 -135 l69 -71 -61 69 c-33 37 -80 98 -105 135 -39 58 -43 71
-39 109 3 23 8 42 12 42 4 0 49 -27 100 -61 123 -79 188 -147 242 -252 24 -47
45 -84 47 -82 8 7 -61 142 -102 199 -50 71 -119 128 -282 231 -63 41 -132 88
-152 105 -36 29 -36 30 -8 20 25 -9 33 -8 49 8 10 11 22 34 26 52 l6 32 107
-82 c59 -44 140 -116 179 -158 62 -66 68 -70 40 -29 -18 27 -81 99 -140 160
-148 155 -243 289 -226 317 10 16 152 -87 236 -170 103 -102 187 -231 234
-359 8 -20 14 -30 14 -23 1 19 -47 139 -77 192 -65 114 -157 216 -287 318 -89
70 -94 75 -73 67 11 -4 21 0 28 12 11 18 15 17 112 -6 l100 -25 50 -70z
m-1211 -81 c38 -174 148 -343 185 -284 4 7 22 -42 40 -107 18 -65 42 -144 53
-174 l21 -55 -6 50 c-3 28 -14 102 -25 165 -25 156 -26 204 -4 280 19 67 26
217 13 276 l-7 32 34 -11 c31 -9 35 -15 54 -86 26 -99 44 -285 36 -386 -4 -44
-17 -150 -30 -235 -29 -191 -47 -341 -42 -347 3 -2 8 18 12 44 3 26 25 145 47
263 50 270 54 439 12 629 -5 22 -3 23 11 11 12 -10 18 -11 24 -2 14 24 80 -72
95 -140 47 -212 22 -374 -114 -723 -43 -110 -86 -226 -96 -257 l-17 -57 -37
97 c-42 109 -86 200 -154 315 -71 120 -111 204 -141 297 -23 72 -28 106 -31
225 l-4 140 24 -90 c30 -114 71 -216 151 -380 81 -165 112 -207 41 -55 -68
147 -123 284 -154 385 -20 66 -25 106 -27 230 -3 123 -2 140 6 95 6 -30 19
-96 30 -145z m-177 142 c10 -4 16 -13 13 -20 -40 -106 -135 -378 -205 -592
-49 -148 -92 -279 -95 -290 -4 -11 6 7 22 40 15 33 74 195 129 361 88 263 166
479 179 494 7 8 33 -32 33 -49 0 -12 -2 -13 -8 -3 -5 7 -8 -15 -9 -50 -1 -158
-150 -585 -280 -807 -58 -99 -163 -311 -163 -330 0 -6 -4 -11 -10 -11 -5 0
-10 13 -10 28 0 15 -22 107 -49 204 -64 228 -75 300 -68 446 9 212 90 417 173
441 l30 8 -34 -96 c-18 -53 -50 -157 -69 -231 -33 -124 -36 -147 -37 -280 -1
-124 3 -158 23 -233 13 -48 26 -86 27 -84 2 2 -5 46 -16 98 -37 175 -22 360
47 589 41 136 81 232 128 310 30 49 39 57 63 56 l28 -1 -37 -82 c-82 -176
-152 -426 -163 -578 -6 -82 -5 -79 40 130 20 88 49 201 65 250 35 105 98 245
111 245 5 0 6 5 2 12 -5 7 -3 8 6 3 10 -6 12 -4 7 9 -4 10 -3 15 3 11 6 -3 10
-1 10 6 0 7 2 10 5 7 3 -3 -10 -39 -29 -81 -43 -95 -57 -143 -17 -62 16 33 36
69 45 80 13 15 12 10 -3 -22 -28 -56 -80 -188 -97 -243 -23 -75 -15 -90 10
-20 55 156 163 370 176 351 3 -4 13 -11 24 -14z m-1392 -64 c-28 -37 -166
-302 -160 -308 2 -2 23 33 48 78 50 89 178 234 216 243 17 4 34 -2 59 -20 29
-22 33 -30 25 -46 -24 -44 -134 -173 -172 -200 -22 -17 -38 -30 -33 -30 21 0
109 79 161 144 l58 74 13 -25 c34 -66 1 -142 -89 -206 -89 -63 -184 -120 -325
-194 l-123 -65 35 69 c20 37 56 118 81 178 60 143 128 258 183 306 24 22 46
39 48 39 3 0 -9 -17 -25 -37z m3592 -147 c17 -13 39 -38 50 -56 l18 -32 -23
13 c-56 29 -129 80 -129 89 0 19 53 10 84 -14z m-267 -122 c39 -63 67 -148 87
-261 5 -28 3 -33 -15 -33 -32 0 -160 46 -262 93 l-93 44 -21 56 -20 56 26 -13
c45 -24 162 -56 195 -55 l31 2 -30 4 c-51 7 -137 34 -186 58 -60 31 -67 55
-27 101 54 61 128 39 199 -59 16 -22 29 -37 29 -33 0 11 -38 66 -68 99 l-26
27 41 0 c39 0 42 -3 81 -62 43 -66 92 -165 92 -185 0 -6 5 -15 10 -18 32 -20
-41 151 -97 229 -33 44 -35 49 -13 35 14 -9 44 -47 67 -85z m-2766 -234 c4 -3
-27 -26 -68 -52 -66 -42 -72 -45 -55 -20 24 33 78 83 68 62 -4 -8 3 -2 15 14
16 21 24 25 27 15 3 -8 8 -16 13 -19z m178 -41 l33 -26 -32 -37 c-58 -66 -230
-186 -266 -186 -10 0 3 121 18 163 11 32 27 47 97 91 77 47 86 51 101 37 8 -9
30 -28 49 -42z m52 -314 c-24 -33 -63 -80 -85 -105 l-41 -45 38 35 c21 19 60
64 85 98 l47 64 6 -44 c6 -40 4 -47 -36 -98 -35 -46 -248 -238 -265 -240 -3 0
-20 37 -39 83 -30 71 -35 96 -39 188 l-4 106 35 16 c51 25 56 22 41 -20 -7
-21 -13 -47 -13 -58 0 -13 2 -15 5 -5 31 93 36 101 93 133 31 17 80 55 109 84
l54 53 -7 -33 c-26 -116 -72 -215 -133 -279 -14 -16 -21 -28 -16 -28 15 0 93
107 120 165 13 28 28 75 34 105 16 81 19 88 30 70 8 -12 10 -11 12 5 1 11 4
-27 7 -85 l6 -105 -44 -60z m1543 117 c39 -37 93 -86 120 -110 l48 -42 -5
-107 -5 -108 10 93 c11 93 21 109 48 77 8 -10 10 -35 5 -82 -6 -70 -24 -173
-31 -185 -3 -4 -24 7 -48 25 -24 18 -90 66 -146 107 -142 103 -234 216 -221
268 6 22 8 20 43 -25 42 -55 115 -127 171 -168 59 -43 43 -22 -19 26 -31 24
-85 80 -120 125 -59 76 -63 84 -54 111 6 15 13 35 16 42 3 10 20 -10 45 -51
45 -77 117 -159 192 -219 40 -33 33 -22 -35 47 -47 49 -105 118 -127 153 l-41
65 27 12 c16 7 34 13 42 13 8 1 46 -29 85 -67z m-796 -10 c15 -48 93 -210 139
-285 l35 -57 -31 -36 c-42 -47 -39 -56 5 -13 34 33 36 33 50 15 20 -28 19 -30
-33 -76 -80 -70 -77 -70 -128 8 -60 93 -109 194 -133 272 -21 69 -39 190 -26
178 4 -4 12 0 19 9 10 13 13 7 19 -38 9 -71 56 -211 101 -299 19 -38 38 -70
40 -70 3 0 -9 27 -25 61 -40 78 -96 249 -105 317 l-7 52 34 0 c32 0 36 -4 46
-38z m-231 -69 c9 -27 -88 -376 -124 -447 -14 -26 -16 -28 -25 -12 -6 10 -14
63 -19 118 -4 55 -11 108 -14 119 -4 12 15 51 56 116 34 54 66 104 71 110 11
14 50 11 55 -4z m312 -58 c0 -5 -8 6 -19 25 -11 19 -19 40 -19 45 0 6 8 -6 19
-25 11 -19 19 -39 19 -45z m-245 24 c19 -96 -1 -163 -115 -392 -45 -88 -85
-172 -90 -186 -9 -25 -8 -25 6 -6 29 37 163 309 190 388 l28 78 18 -53 c11
-29 19 -59 19 -68 0 -9 -19 -47 -42 -86 -50 -83 -229 -334 -237 -334 -12 1
-75 95 -118 176 -47 88 -49 108 -13 144 17 17 18 15 22 -49 4 -48 15 -88 43
-149 21 -45 40 -81 42 -79 2 2 -9 33 -25 68 -57 128 -64 208 -24 297 l19 43 5
-93 c6 -99 30 -171 54 -161 35 13 81 130 135 348 38 152 35 145 57 145 14 0
21 -9 26 -31z m295 -109 c49 -82 63 -93 24 -17 -37 69 -38 71 -24 63 15 -10
49 -77 55 -109 2 -13 11 -38 20 -55 34 -65 14 -53 -30 18 -49 80 -97 170 -90
170 2 0 22 -31 45 -70z m436 -85 c-5 -41 -99 -241 -134 -284 l-19 -25 4 45 c2
24 9 95 14 157 9 113 14 129 54 190 l21 33 33 -38 c29 -33 32 -43 27 -78z
m-1264 51 c-12 -13 -43 -38 -69 -56 -55 -38 -39 -20 33 39 56 46 69 52 36 17z"/>
<path d="M2561 4414 c0 -11 3 -14 6 -6 3 7 2 16 -1 19 -3 4 -6 -2 -5 -13z"/>
<path d="M3041 4704 c0 -11 3 -14 6 -6 3 7 2 16 -1 19 -3 4 -6 -2 -5 -13z"/>
<path d="M1692 4425 c0 -16 2 -22 5 -12 2 9 2 23 0 30 -3 6 -5 -1 -5 -18z"/>
<path d="M2711 4210 c0 -8 4 -24 9 -35 5 -13 9 -14 9 -5 0 8 -4 24 -9 35 -5
13 -9 14 -9 5z"/>
<path d="M2741 4104 c0 -11 3 -14 6 -6 3 7 2 16 -1 19 -3 4 -6 -2 -5 -13z"/>
<path d="M2730 3979 c-7 -11 -9 -23 -7 -26 3 -2 8 5 12 16 8 26 31 27 59 4 21
-18 21 -18 2 5 -24 28 -52 28 -66 1z"/>
<path d="M2685 3860 c-14 -46 -24 -85 -22 -87 3 -2 16 33 30 79 14 45 24 84
22 86 -2 2 -15 -33 -30 -78z"/>
<path d="M2841 3854 c0 -11 3 -14 6 -6 3 7 2 16 -1 19 -3 4 -6 -2 -5 -13z"/>
<path d="M2854 3730 c0 -52 1 -74 3 -47 2 26 2 68 0 95 -2 26 -3 4 -3 -48z"/>
<path d="M2731 3654 c0 -11 3 -14 6 -6 3 7 2 16 -1 19 -3 4 -6 -2 -5 -13z"/>
<path d="M4188 3963 c7 -3 16 -2 19 1 4 3 -2 6 -13 5 -11 0 -14 -3 -6 -6z"/>
<path d="M2283 3450 c11 -27 23 -48 25 -46 4 5 -35 96 -42 96 -2 0 5 -22 17
-50z"/>
<path d="M1670 3556 c0 -2 16 -13 36 -25 19 -12 32 -16 29 -11 -7 11 -65 43
-65 36z"/>
<path d="M3127 3391 c-20 -42 -30 -67 -21 -56 19 23 68 125 63 129 -2 2 -21
-31 -42 -73z"/>
<path d="M2930 3380 c-6 -11 -8 -20 -6 -20 3 0 10 9 16 20 6 11 8 20 6 20 -3
0 -10 -9 -16 -20z"/>
<path d="M3219 3303 c-13 -16 -12 -17 4 -4 9 7 17 15 17 17 0 8 -8 3 -21 -13z"/>
<path d="M4488 3583 c7 -3 16 -2 19 1 4 3 -2 6 -13 5 -11 0 -14 -3 -6 -6z"/>
<path d="M4308 3563 c7 -3 16 -2 19 1 4 3 -2 6 -13 5 -11 0 -14 -3 -6 -6z"/>
<path d="M4314 3514 c-32 -19 -72 -49 -89 -66 -23 -23 -17 -20 24 11 30 24 72
51 93 62 21 11 38 22 38 24 0 8 -4 6 -66 -31z"/>
<path d="M4169 3403 c-13 -16 -12 -17 4 -4 16 13 21 21 13 21 -2 0 -10 -8 -17
-17z"/>
<path d="M2000 3476 c0 -2 8 -10 18 -17 15 -13 16 -12 3 4 -13 16 -21 21 -21
13z"/>
<path d="M2150 3325 c13 -14 26 -25 28 -25 3 0 -5 11 -18 25 -13 14 -26 25
-28 25 -3 0 5 -11 18 -25z"/>
<path d="M2661 3464 c0 -11 3 -14 6 -6 3 7 2 16 -1 19 -3 4 -6 -2 -5 -13z"/>
<path d="M2592 3250 c0 -14 2 -19 5 -12 2 6 2 18 0 25 -3 6 -5 1 -5 -13z"/>
<path d="M868 3313 c6 -2 18 -2 25 0 6 3 1 5 -13 5 -14 0 -19 -2 -12 -5z"/>
<path d="M1053 3243 c9 -2 23 -2 30 0 6 3 -1 5 -18 5 -16 0 -22 -2 -12 -5z"/>
<path d="M1118 3233 c6 -2 18 -2 25 0 6 3 1 5 -13 5 -14 0 -19 -2 -12 -5z"/>
<path d="M1168 3223 c7 -3 16 -2 19 1 4 3 -2 6 -13 5 -11 0 -14 -3 -6 -6z"/>
<path d="M3579 2903 c-13 -16 -12 -17 4 -4 16 13 21 21 13 21 -2 0 -10 -8 -17
-17z"/>
<path d="M2040 2985 c14 -8 30 -14 35 -14 6 0 -1 6 -15 14 -14 8 -29 14 -35
14 -5 0 1 -6 15 -14z"/>
<path d="M4705 2650 c-3 -6 1 -7 9 -4 18 7 21 14 7 14 -6 0 -13 -4 -16 -10z"/>
<path d="M1648 2823 c6 -2 18 -2 25 0 6 3 1 5 -13 5 -14 0 -19 -2 -12 -5z"/>
<path d="M1598 2813 c7 -3 16 -2 19 1 4 3 -2 6 -13 5 -11 0 -14 -3 -6 -6z"/>
<path d="M1558 2803 c7 -3 16 -2 19 1 4 3 -2 6 -13 5 -11 0 -14 -3 -6 -6z"/>
<path d="M1422 2767 c-51 -17 -89 -33 -85 -34 5 -2 53 12 108 31 55 19 93 35
85 35 -8 0 -57 -14 -108 -32z"/>
<path d="M1298 2723 c7 -3 16 -2 19 1 4 3 -2 6 -13 5 -11 0 -14 -3 -6 -6z"/>
<path d="M1233 2713 c9 -2 23 -2 30 0 6 3 -1 5 -18 5 -16 0 -22 -2 -12 -5z"/>
<path d="M1758 2633 c12 -2 30 -2 40 0 9 3 -1 5 -23 4 -22 0 -30 -2 -17 -4z"/>
<path d="M1808 2573 c7 -3 16 -2 19 1 4 3 -2 6 -13 5 -11 0 -14 -3 -6 -6z"/>
<path d="M325 2163 c177 -51 220 -62 223 -58 6 6 -156 53 -203 59 -22 3 -31 3
-20 -1z"/>
<path d="M898 1993 c7 -3 16 -2 19 1 4 3 -2 6 -13 5 -11 0 -14 -3 -6 -6z"/>
<path d="M3498 2503 c6 -2 18 -2 25 0 6 3 1 5 -13 5 -14 0 -19 -2 -12 -5z"/>
<path d="M2108 2353 c7 -3 16 -2 19 1 4 3 -2 6 -13 5 -11 0 -14 -3 -6 -6z"/>
<path d="M3628 2073 c7 -3 16 -2 19 1 4 3 -2 6 -13 5 -11 0 -14 -3 -6 -6z"/>
<path d="M4000 2036 c0 -2 8 -10 18 -17 15 -13 16 -12 3 4 -13 16 -21 21 -21
13z"/>
<path d="M4430 2306 c0 -3 14 -12 30 -21 17 -9 30 -13 30 -11 0 3 -13 12 -30
21 -16 9 -30 13 -30 11z"/>
<path d="M4500 2267 c0 -2 23 -19 52 -36 28 -18 47 -26 40 -19 -11 14 -92 62
-92 55z"/>
<path d="M4695 2120 c27 -27 51 -50 54 -50 3 0 -17 23 -44 50 -27 28 -51 50
-54 50 -3 0 17 -22 44 -50z"/>
<path d="M4340 1820 c-20 -6 -21 -8 -5 -8 11 0 31 4 45 8 20 6 21 8 5 8 -11 0
-31 -4 -45 -8z"/>
<path d="M4278 1803 c6 -2 18 -2 25 0 6 3 1 5 -13 5 -14 0 -19 -2 -12 -5z"/>
<path d="M4213 1793 c9 -2 25 -2 35 0 9 3 1 5 -18 5 -19 0 -27 -2 -17 -5z"/>
<path d="M4445 1740 c-38 -10 -61 -19 -50 -19 23 -1 124 25 133 33 7 8 -3 6
-83 -14z"/>
<path d="M4333 1713 c9 -2 23 -2 30 0 6 3 -1 5 -18 5 -16 0 -22 -2 -12 -5z"/>
<path d="M4263 1703 c9 -2 23 -2 30 0 6 3 -1 5 -18 5 -16 0 -22 -2 -12 -5z"/>
<path d="M2802 2150 c0 -14 2 -19 5 -12 2 6 2 18 0 25 -3 6 -5 1 -5 -13z"/>
<path d="M1465 1377 c-97 -51 -162 -95 -195 -133 -24 -28 -24 -28 10 2 51 45
89 70 193 125 50 27 88 49 82 49 -5 -1 -46 -20 -90 -43z"/>
<path d="M636 1850 c-88 -67 -85 -74 4 -9 63 46 77 59 66 59 -1 0 -33 -23 -70
-50z"/>
<path d="M577 1739 c7 -7 15 -10 18 -7 3 3 -2 9 -12 12 -14 6 -15 5 -6 -5z"/>
<path d="M618 1723 c7 -3 16 -2 19 1 4 3 -2 6 -13 5 -11 0 -14 -3 -6 -6z"/>
<path d="M3990 995 c0 -5 5 -17 10 -25 5 -8 10 -10 10 -5 0 6 -5 17 -10 25 -5
8 -10 11 -10 5z"/>
<path d="M2482 1750 c0 -14 2 -19 5 -12 2 6 2 18 0 25 -3 6 -5 1 -5 -13z"/>
<path d="M2471 1704 c0 -11 3 -14 6 -6 3 7 2 16 -1 19 -3 4 -6 -2 -5 -13z"/>
<path d="M2061 1114 c0 -11 3 -14 6 -6 3 7 2 16 -1 19 -3 4 -6 -2 -5 -13z"/>
<path d="M1674 778 l-19 -23 23 19 c21 18 27 26 19 26 -2 0 -12 -10 -23 -22z"/>
</g>
</svg>